<svg xmlns="http://www.w3.org/2000/svg" viewBox="0 0 1600 900">
  <defs>
    <linearGradient id="sky" x1="0" x2="0" y1="0" y2="1">
      <stop offset="0%" stop-color="#b7c8e6"/>
      <stop offset="50%" stop-color="#f0d2b8"/>
      <stop offset="100%" stop-color="#7d92b8"/>
    </linearGradient>
    <linearGradient id="road" x1="0" x2="0" y1="0" y2="1">
      <stop offset="0%" stop-color="#2f3a52"/>
      <stop offset="100%" stop-color="#1b2333"/>
    </linearGradient>
  </defs>
  <rect width="1600" height="900" fill="url(#sky)"/>
  <path d="M0 520C180 470 310 490 470 530c150 37 260 46 430 15 205-36 334-2 700 72v293H0z" fill="#5a7199" opacity=".88"/>
  <path d="M0 590c190-42 328-13 500 31 147 38 311 44 525 6 175-31 336-15 575 54v219H0z" fill="#41536f"/>
  <path d="M0 738c313-44 542-47 802-6 237 38 470 35 798-7v175H0z" fill="url(#road)"/>
  <path d="M755 720l35 0 62 180h-104z" fill="#f0c154" opacity=".9"/>
  <path d="M0 836c260-26 522-32 798-3 235 24 515 28 802-8v75H0z" fill="#111722"/>
</svg>
