<svg xmlns="http://www.w3.org/2000/svg" viewBox="0 0 900 520"><rect width="900" height="520" fill="#dde9f8"/><rect y="360" width="900" height="160" fill="#6a7c9a"/><g opacity=".75" fill="#123d7a"><rect x="604" y="104" width="18" height="150"/><rect x="648" y="84" width="18" height="170"/><path d="M610 98l86 80h-46l-40-48z"/><path d="M654 78l98 92h-52l-46-56z"/></g><g transform="translate(96 170)"><rect x="240" y="20" width="420" height="120" rx="12" fill="#ff8c3d" stroke="#c15b20" stroke-width="7"/><rect x="152" y="46" width="150" height="94" rx="16" fill="#ff8c3d" stroke="#c15b20" stroke-width="7"/><path d="M152 70H86l-34 44v26h100z" fill="#ff8c3d" stroke="#c15b20" stroke-width="7"/><circle cx="200" cy="152" r="32" fill="#1d2332"/><circle cx="200" cy="152" r="14" fill="#aeb8ca"/><circle cx="492" cy="152" r="32" fill="#1d2332"/><circle cx="492" cy="152" r="14" fill="#aeb8ca"/><circle cx="604" cy="152" r="32" fill="#1d2332"/><circle cx="604" cy="152" r="14" fill="#aeb8ca"/></g></svg>
