<svg xmlns="http://www.w3.org/2000/svg" viewBox="0 0 1200 800">
  <rect width="1200" height="800" fill="#dce9fb"/>
  <rect y="540" width="1200" height="260" fill="#7c8ca9"/>
  <rect y="600" width="1200" height="200" fill="#43526f"/>
  <g transform="translate(130 220)">
    <rect x="310" y="70" width="470" height="190" rx="14" fill="#ffffff" stroke="#c1d2eb" stroke-width="8"/>
    <rect x="260" y="120" width="170" height="140" rx="18" fill="#ffffff" stroke="#c1d2eb" stroke-width="8"/>
    <path d="M260 140h-80l-48 78v42h128z" fill="#ffffff" stroke="#c1d2eb" stroke-width="8"/>
    <rect x="280" y="145" width="80" height="48" rx="8" fill="#3d5f96"/>
    <circle cx="240" cy="272" r="50" fill="#1f2738"/>
    <circle cx="240" cy="272" r="24" fill="#adb8ca"/>
    <circle cx="650" cy="272" r="50" fill="#1f2738"/>
    <circle cx="650" cy="272" r="24" fill="#adb8ca"/>
    <circle cx="520" cy="272" r="50" fill="#1f2738"/>
    <circle cx="520" cy="272" r="24" fill="#adb8ca"/>
    <rect x="200" y="90" width="18" height="30" rx="8" fill="#ff7f32"/>
    <rect x="640" y="90" width="18" height="30" rx="8" fill="#ff7f32"/>
    <rect x="690" y="90" width="18" height="30" rx="8" fill="#ff7f32"/>
    <rect x="740" y="90" width="18" height="30" rx="8" fill="#ff7f32"/>
    <path d="M125 260h-18v-46h18c25 0 37 13 37 23s-12 23-37 23z" fill="#ffc37e"/>
  </g>
</svg>
